<mxfile host="app.diagrams.net" modified="2023-11-03T10:40:30.743Z" agent="Mozilla/5.0 (Windows NT 10.0; Win64; x64) AppleWebKit/537.36 (KHTML, like Gecko) Chrome/118.0.0.0 Safari/537.36" etag="PshTxdsxBaw5nv-j1wPg" version="22.0.8" type="github">
  <diagram name="第 1 页" id="s22CFXbRhYd0CIsiXdMo">
    <mxGraphModel dx="1369" dy="786" grid="1" gridSize="10" guides="1" tooltips="1" connect="1" arrows="1" fold="1" page="1" pageScale="1" pageWidth="827" pageHeight="1169" math="0" shadow="0">
      <root>
        <mxCell id="0" />
        <mxCell id="1" parent="0" />
        <mxCell id="G8RxiyIN_LW1iVDfZJhn-1" value="&lt;font style=&quot;font-size: 18px;&quot;&gt;项目目标&lt;/font&gt;" style="rounded=1;whiteSpace=wrap;html=1;fillColor=#d5e8d4;strokeColor=#82b366;" vertex="1" parent="1">
          <mxGeometry x="350" y="370" width="90" height="50" as="geometry" />
        </mxCell>
        <mxCell id="G8RxiyIN_LW1iVDfZJhn-6" value="" style="endArrow=classic;html=1;rounded=0;" edge="1" parent="1">
          <mxGeometry width="50" height="50" relative="1" as="geometry">
            <mxPoint x="400" y="370" as="sourcePoint" />
            <mxPoint x="400" y="310" as="targetPoint" />
          </mxGeometry>
        </mxCell>
        <mxCell id="G8RxiyIN_LW1iVDfZJhn-7" value="" style="endArrow=classic;html=1;rounded=0;" edge="1" parent="1">
          <mxGeometry width="50" height="50" relative="1" as="geometry">
            <mxPoint x="440" y="394.5" as="sourcePoint" />
            <mxPoint x="530" y="394.5" as="targetPoint" />
          </mxGeometry>
        </mxCell>
        <mxCell id="G8RxiyIN_LW1iVDfZJhn-8" value="" style="endArrow=classic;html=1;rounded=0;" edge="1" parent="1">
          <mxGeometry width="50" height="50" relative="1" as="geometry">
            <mxPoint x="350" y="394.5" as="sourcePoint" />
            <mxPoint x="270" y="394.5" as="targetPoint" />
          </mxGeometry>
        </mxCell>
        <mxCell id="G8RxiyIN_LW1iVDfZJhn-9" value="" style="endArrow=classic;html=1;rounded=0;" edge="1" parent="1">
          <mxGeometry width="50" height="50" relative="1" as="geometry">
            <mxPoint x="400" y="420" as="sourcePoint" />
            <mxPoint x="400" y="470" as="targetPoint" />
          </mxGeometry>
        </mxCell>
        <mxCell id="G8RxiyIN_LW1iVDfZJhn-10" value="&lt;font style=&quot;font-size: 18px;&quot;&gt;实时智能分析实现安全性&lt;/font&gt;" style="rounded=1;whiteSpace=wrap;html=1;fillColor=#f8cecc;strokeColor=#b85450;" vertex="1" parent="1">
          <mxGeometry x="300" y="250" width="200" height="60" as="geometry" />
        </mxCell>
        <mxCell id="G8RxiyIN_LW1iVDfZJhn-11" value="" style="rounded=1;whiteSpace=wrap;html=1;" vertex="1" parent="1">
          <mxGeometry x="70" y="365" width="200" height="60" as="geometry" />
        </mxCell>
        <mxCell id="G8RxiyIN_LW1iVDfZJhn-12" value="" style="rounded=1;whiteSpace=wrap;html=1;" vertex="1" parent="1">
          <mxGeometry x="300" y="470" width="200" height="60" as="geometry" />
        </mxCell>
        <mxCell id="G8RxiyIN_LW1iVDfZJhn-13" value="" style="rounded=1;whiteSpace=wrap;html=1;" vertex="1" parent="1">
          <mxGeometry x="530" y="365" width="200" height="60" as="geometry" />
        </mxCell>
      </root>
    </mxGraphModel>
  </diagram>
</mxfile>
